<?xml version="1.0" encoding="UTF-8"?>
<svg id="Layer_2" data-name="Layer 2" xmlns="http://www.w3.org/2000/svg" viewBox="0 0 1777.17 1719.95">
  <defs>
    <style>
      .cls-1 {
        fill: #d3d4d5;
      }

      .cls-2 {
        fill: #fff;
      }

      .cls-3 {
        fill: #48b754;
      }
    </style>
  </defs>
  <g id="Layer_1-2" data-name="Layer 1">
    <g>
      <path class="cls-2" d="M146.33,1437.49c17.14.02,29.68,13.53,30.13,29.38.43,15.47-11.48,30.67-28.06,30.73l-78.31.26-.48,92.45c-.09,18.1-17.55,30.76-34.38,30.83-16.72.07-34.52-13.03-34.55-31.51l-.3-173.01c-.03-16.21,3.69-31.14,10.23-45.81,7.75-17.38,21.17-31.8,38.57-39.68,11.21-5.08,23.11-8.54,35.63-8.55l86.97-.06c15.98-.01,28.4,13.48,29.9,28.51,2.01,20.29-13.03,36.29-32.89,36.28l-59.02-.03c-3.71,0-7.73.85-11.45,1.46-24.55,4-35.98,24.89-31.78,48.65l79.81.09Z"/>
      <path class="cls-2" d="M316.02,1540.1l.3-81.46c.06-15.21,13.95-26.4,28.06-26.87,13.88-.45,28.84,10.36,28.99,25.79.28,29.2,1.45,57.67-.24,86.79-2.56,44.12-41.19,77.09-83.88,76.78-43.27-.32-81.44-34.22-83.13-78.65-1.1-28.96-.58-56.95.07-85.84.34-15.36,16.1-25.73,29.84-24.82,14.22.94,27.2,12.72,27.22,27.76l.11,79.91c.01,7.12,3.02,12.93,8.39,17.27,11.39,9.21,28,8.71,38.21-2,3.63-3.81,6.04-8.69,6.06-14.67Z"/>
      <path class="cls-3" d="M705.86,1505.36c-9.45-17.31-31.7-20.11-46.58-8.76-7.24,5.52-9.17,13.65-9.22,22.63l-.43,78.97c-.08,14.23-15.51,24.09-28.09,22.76-9.41-1-15.61-5.14-19.94-12.96-1.69-3.06-3.83-7.08-3.83-11.12l.05-85.26c5.36-50.07,51.61-83.46,100.27-72.06,37.01,8.67,62.92,41.93,62.79,80.62l-.26,75.76c-.05,14.34-12.11,24.58-25.58,25.17-12.71.56-26.27-10.24-26.28-23.68l-.02-75.26c0-5.36-.15-11.82-2.88-16.82Z"/>
      <path class="cls-2" d="M471.13,1593.39c0,17-17.95,28.29-31.7,27.73-16.82-.69-29.94-13.83-29.93-31.12l.23-239.74c.02-16.48,15.73-27.94,30.47-27.93,14.91.02,31.07,11.31,31.06,28.01l-.13,243.05Z"/>
      <path class="cls-2" d="M565.51,1593.49c0,16.31-16.53,27.45-30.31,27.65-14.97.21-30.82-11.43-30.81-28.01l.16-244.71c.01-15.77,17.08-26.08,30.21-25.9,14.57.2,30.72,10.91,30.72,27.03l.02,243.95ZM530.7,1337.68c-10.61,2.98-15.54,13.76-12.26,23.3,3.05,8.88,12.96,14.45,22.27,11.62,9.44-2.87,15.03-12.65,12.41-22.31-2.45-9.05-12.33-15.46-22.42-12.62ZM535.66,1609.31c7.36-.08,18.97-5.24,18.98-14.2l.26-141.84c.01-7.26-5.88-11.99-11.74-14.5-5.93-2.54-12.29-1.93-18.04.7-6.44,2.94-10.42,8.47-10.42,15.91l.02,138.75c2.47,9.66,9.72,15.31,20.94,15.19Z"/>
      <path class="cls-3" d="M535.66,1609.31c-11.22.12-18.47-5.52-20.94-15.19l-.02-138.75c0-7.44,3.98-12.97,10.42-15.91,5.75-2.63,12.11-3.24,18.04-.7,5.86,2.51,11.75,7.25,11.74,14.5l-.26,141.84c-.02,8.96-11.62,14.12-18.98,14.2Z"/>
      <path class="cls-3" d="M530.7,1337.68c10.1-2.84,19.97,3.58,22.42,12.62,2.62,9.66-2.97,19.44-12.41,22.31-9.31,2.83-19.22-2.75-22.27-11.62-3.28-9.54,1.65-20.32,12.26-23.3Z"/>
      <g>
        <path class="cls-2" d="M24.72,1687.6c0,1.7-.3,3.31-.91,4.83-.6,1.52-1.44,2.81-2.51,3.88-1.35,1.33-2.94,2.34-4.76,3.02s-4.13,1.03-6.92,1.03h-4.42v14.6H0v-39.16h9.84c2.31,0,4.29.19,5.92.58,1.63.39,3.07,1.01,4.31,1.87,1.46,1,2.59,2.27,3.42,3.8.82,1.53,1.24,3.39,1.24,5.56ZM19.3,1687.73c0-1.35-.23-2.52-.7-3.52s-1.17-1.81-2.12-2.45c-.82-.54-1.78-.93-2.88-1.16-1.1-.23-2.46-.34-4.09-.34h-4.31v15.65h3.55c2.1,0,3.8-.17,5.1-.51,1.3-.34,2.38-.95,3.23-1.83.77-.79,1.33-1.65,1.68-2.58.35-.93.53-2.02.53-3.26Z"/>
        <path class="cls-2" d="M86.16,1700.28c0,4.94-1.19,8.76-3.58,11.45-2.38,2.69-5.56,4.04-9.52,4.04s-7.3-1.39-9.64-4.17c-2.34-2.78-3.51-6.55-3.51-11.32s1.21-8.72,3.62-11.44c2.41-2.72,5.59-4.08,9.53-4.08s7.14,1.35,9.52,4.06c2.38,2.71,3.58,6.53,3.58,11.45ZM81.06,1700.28c0-3.8-.69-6.63-2.08-8.48-1.39-1.85-3.36-2.77-5.92-2.77s-4.56.92-5.96,2.77c-1.39,1.85-2.09,4.68-2.09,8.48s.7,6.47,2.09,8.38c1.39,1.9,3.38,2.85,5.96,2.85s4.51-.93,5.9-2.8c1.39-1.87,2.09-4.68,2.09-8.43Z"/>
        <path class="cls-2" d="M160.77,1685.58l-7.44,29.38h-4.58l-7.18-22.64-7.13,22.64h-4.55l-7.52-29.38h5.15l5.18,22.75,6.97-22.75h4.08l7.15,22.75,4.89-22.75h4.97Z"/>
        <path class="cls-2" d="M211.82,1715.64c-4.68,0-8.31-1.32-10.9-3.96-2.59-2.64-3.88-6.39-3.88-11.24s1.25-8.59,3.76-11.43c2.51-2.83,5.79-4.25,9.84-4.25,1.82,0,3.44.26,4.84.79,1.4.53,2.63,1.35,3.68,2.47,1.05,1.12,1.86,2.49,2.42,4.12.56,1.62.84,3.61.84,5.96v2.68h-20.35c0,3.42.86,6.03,2.58,7.84,1.72,1.81,4.09,2.71,7.13,2.71,1.09,0,2.15-.12,3.2-.37,1.04-.25,1.99-.56,2.83-.95.89-.4,1.65-.79,2.26-1.17.61-.38,1.12-.73,1.52-1.07h.29v5.39c-.58.23-1.3.51-2.16.85s-1.63.61-2.31.8c-.96.26-1.84.46-2.62.61-.78.14-1.77.21-2.96.21ZM217.61,1696.99c-.04-1.33-.19-2.48-.47-3.44s-.68-1.78-1.21-2.45c-.58-.74-1.32-1.3-2.22-1.68-.9-.39-2.02-.58-3.35-.58s-2.43.2-3.35.59-1.76.97-2.51,1.72c-.74.77-1.3,1.63-1.68,2.56-.39.94-.63,2.03-.74,3.27h15.54Z"/>
        <path class="cls-2" d="M276.92,1690.89h-.26c-.37-.11-.76-.17-1.17-.2-.41-.03-.91-.04-1.49-.04-1.33,0-2.66.29-3.97.87-1.31.58-2.56,1.44-3.73,2.58v20.85h-4.94v-29.38h4.94v4.37c1.81-1.59,3.38-2.72,4.72-3.38,1.34-.66,2.64-.99,3.91-.99.51,0,.89.01,1.14.04.25.03.54.07.85.12v5.15Z"/>
        <path class="cls-2" d="M374.99,1714.95v-34.53h-13.15v-4.63h31.5v4.63h-13.15v34.53h-5.21Z"/>
        <path class="cls-2" d="M449.5,1700.28c0,4.94-1.19,8.76-3.58,11.45-2.38,2.69-5.56,4.04-9.52,4.04s-7.3-1.39-9.64-4.17c-2.34-2.78-3.51-6.55-3.51-11.32s1.21-8.72,3.62-11.44c2.41-2.72,5.59-4.08,9.53-4.08s7.14,1.35,9.52,4.06c2.38,2.71,3.58,6.53,3.58,11.45ZM444.4,1700.28c0-3.8-.69-6.63-2.08-8.48-1.39-1.85-3.36-2.77-5.92-2.77s-4.56.92-5.96,2.77c-1.39,1.85-2.09,4.68-2.09,8.48s.7,6.47,2.09,8.38c1.39,1.9,3.38,2.85,5.96,2.85s4.51-.93,5.9-2.8c1.39-1.87,2.09-4.68,2.09-8.43Z"/>
        <path class="cls-2" d="M573.22,1714.95h-5.21v-33.74l-10.2,30.02h-3.16l-10.12-30.02v33.74h-4.86v-39.16h7.1l9.78,28.86,9.44-28.86h7.23v39.16Z"/>
        <path class="cls-2" d="M638.87,1700.28c0,4.94-1.19,8.76-3.58,11.45-2.38,2.69-5.56,4.04-9.52,4.04s-7.3-1.39-9.64-4.17c-2.34-2.78-3.51-6.55-3.51-11.32s1.21-8.72,3.62-11.44c2.41-2.72,5.59-4.08,9.53-4.08s7.14,1.35,9.52,4.06c2.38,2.71,3.58,6.53,3.58,11.45ZM633.77,1700.28c0-3.8-.69-6.63-2.08-8.48-1.39-1.85-3.36-2.77-5.92-2.77s-4.56.92-5.96,2.77c-1.39,1.85-2.09,4.68-2.09,8.48s.7,6.47,2.09,8.38c1.39,1.9,3.38,2.85,5.96,2.85s4.51-.93,5.9-2.8c1.39-1.87,2.09-4.68,2.09-8.43Z"/>
        <path class="cls-2" d="M700.65,1685.58l-11.07,29.38h-4.44l-10.99-29.38h5.34l8.05,22.67,7.97-22.67h5.15Z"/>
        <path class="cls-2" d="M750.65,1715.64c-4.68,0-8.31-1.32-10.9-3.96-2.59-2.64-3.88-6.39-3.88-11.24s1.25-8.59,3.76-11.43c2.51-2.83,5.79-4.25,9.84-4.25,1.82,0,3.44.26,4.84.79,1.4.53,2.63,1.35,3.68,2.47,1.05,1.12,1.86,2.49,2.42,4.12.56,1.62.84,3.61.84,5.96v2.68h-20.35c0,3.42.86,6.03,2.58,7.84,1.72,1.81,4.09,2.71,7.13,2.71,1.09,0,2.15-.12,3.2-.37,1.04-.25,1.99-.56,2.83-.95.89-.4,1.65-.79,2.26-1.17.61-.38,1.12-.73,1.52-1.07h.29v5.39c-.58.23-1.3.51-2.16.85s-1.63.61-2.31.8c-.96.26-1.84.46-2.62.61-.78.14-1.77.21-2.96.21ZM756.43,1696.99c-.04-1.33-.19-2.48-.47-3.44s-.68-1.78-1.21-2.45c-.58-.74-1.32-1.3-2.22-1.68-.9-.39-2.02-.58-3.35-.58s-2.43.2-3.35.59-1.76.97-2.51,1.72c-.74.77-1.3,1.63-1.68,2.56-.39.94-.63,2.03-.74,3.27h15.54Z"/>
      </g>
    </g>
    <g>
      <path class="cls-2" d="M1162.26,1441.67c17.14.02,29.68,13.53,30.13,29.38.43,15.47-11.48,30.67-28.06,30.73l-78.31.26-.48,92.45c-.09,18.1-17.55,30.76-34.38,30.83-16.72.07-34.52-13.03-34.55-31.51l-.3-173.01c-.03-16.21,3.69-31.14,10.23-45.81,7.75-17.38,21.17-31.8,38.57-39.68,11.21-5.08,23.11-8.54,35.63-8.55l86.97-.06c15.98-.01,28.4,13.48,29.9,28.51,2.01,20.29-13.03,36.29-32.89,36.28l-59.02-.03c-3.71,0-7.73.85-11.45,1.46-24.55,4-35.98,24.89-31.78,48.65l79.81.09Z"/>
      <path class="cls-2" d="M1331.96,1544.28l.3-81.46c.06-15.21,13.95-26.4,28.06-26.87,13.88-.45,28.84,10.36,28.99,25.79.28,29.2,1.45,57.67-.24,86.79-2.56,44.12-41.19,77.09-83.88,76.78-43.27-.32-81.44-34.22-83.13-78.65-1.1-28.96-.58-56.95.07-85.84.34-15.36,16.1-25.73,29.84-24.82,14.22.94,27.2,12.72,27.22,27.76l.11,79.91c.01,7.12,3.02,12.93,8.39,17.27,11.39,9.21,28,8.71,38.21-2,3.63-3.81,6.04-8.69,6.06-14.67Z"/>
      <path d="M1721.79,1509.54c-9.45-17.31-31.7-20.11-46.58-8.76-7.24,5.52-9.17,13.65-9.22,22.63l-.43,78.97c-.08,14.23-15.51,24.09-28.09,22.76-9.41-1-15.61-5.14-19.94-12.96-1.69-3.06-3.83-7.08-3.83-11.12l.05-85.26c5.36-50.07,51.61-83.46,100.27-72.06,37.01,8.67,62.92,41.93,62.79,80.62l-.26,75.76c-.05,14.34-12.11,24.58-25.58,25.17-12.71.56-26.27-10.24-26.28-23.68l-.02-75.26c0-5.36-.15-11.82-2.88-16.82Z"/>
      <path class="cls-2" d="M1487.06,1597.58c0,17-17.95,28.29-31.7,27.73-16.82-.69-29.94-13.83-29.93-31.12l.23-239.74c.02-16.48,15.73-27.94,30.47-27.93,14.91.02,31.07,11.31,31.06,28.01l-.13,243.05Z"/>
      <path class="cls-2" d="M1581.44,1597.67c0,16.31-16.53,27.45-30.31,27.65-14.97.21-30.82-11.43-30.81-28.01l.16-244.71c.01-15.77,17.08-26.08,30.21-25.9,14.57.2,30.72,10.91,30.72,27.03l.02,243.95ZM1546.63,1341.86c-10.61,2.98-15.54,13.76-12.26,23.3,3.05,8.88,12.96,14.45,22.27,11.62,9.44-2.87,15.03-12.65,12.41-22.31-2.45-9.05-12.33-15.46-22.42-12.62ZM1551.59,1613.49c7.36-.08,18.97-5.24,18.98-14.2l.26-141.84c.01-7.26-5.88-11.99-11.74-14.5-5.93-2.54-12.29-1.93-18.04.7-6.44,2.94-10.42,8.47-10.42,15.91l.02,138.75c2.47,9.66,9.72,15.31,20.94,15.19Z"/>
      <path d="M1551.59,1613.49c-11.22.12-18.47-5.52-20.94-15.19l-.02-138.75c0-7.44,3.98-12.97,10.42-15.91,5.75-2.63,12.11-3.24,18.04-.7,5.86,2.51,11.75,7.25,11.74,14.5l-.26,141.84c-.02,8.96-11.62,14.12-18.98,14.2Z"/>
      <path d="M1546.63,1341.86c10.1-2.84,19.97,3.58,22.42,12.62,2.62,9.66-2.97,19.44-12.41,22.31-9.31,2.83-19.22-2.75-22.27-11.62-3.28-9.54,1.65-20.32,12.26-23.3Z"/>
      <g>
        <path class="cls-2" d="M1040.65,1691.79c0,1.7-.3,3.31-.91,4.83-.6,1.52-1.44,2.81-2.51,3.88-1.35,1.33-2.94,2.34-4.76,3.02s-4.13,1.03-6.92,1.03h-4.42v14.6h-5.21v-39.16h9.84c2.31,0,4.29.19,5.92.58,1.63.39,3.07,1.01,4.31,1.87,1.46,1,2.59,2.27,3.42,3.8.82,1.53,1.24,3.39,1.24,5.56ZM1035.23,1691.92c0-1.35-.23-2.52-.7-3.52s-1.17-1.81-2.12-2.45c-.82-.54-1.78-.93-2.88-1.16-1.1-.23-2.46-.34-4.09-.34h-4.31v15.65h3.55c2.1,0,3.8-.17,5.1-.51,1.3-.34,2.38-.95,3.23-1.83.77-.79,1.33-1.65,1.68-2.58.35-.93.53-2.02.53-3.26Z"/>
        <path class="cls-2" d="M1102.09,1704.46c0,4.94-1.19,8.76-3.58,11.45-2.38,2.69-5.56,4.04-9.52,4.04s-7.3-1.39-9.64-4.17c-2.34-2.78-3.51-6.55-3.51-11.32s1.21-8.72,3.62-11.44c2.41-2.72,5.59-4.08,9.53-4.08s7.14,1.35,9.52,4.06c2.38,2.71,3.58,6.53,3.58,11.45ZM1096.99,1704.46c0-3.8-.69-6.63-2.08-8.48-1.39-1.85-3.36-2.77-5.92-2.77s-4.56.92-5.96,2.77c-1.39,1.85-2.09,4.68-2.09,8.48s.7,6.47,2.09,8.38c1.39,1.9,3.38,2.85,5.96,2.85s4.51-.93,5.9-2.8c1.39-1.87,2.09-4.68,2.09-8.43Z"/>
        <path class="cls-2" d="M1176.7,1689.76l-7.44,29.38h-4.58l-7.18-22.64-7.13,22.64h-4.55l-7.52-29.38h5.15l5.18,22.75,6.97-22.75h4.08l7.15,22.75,4.89-22.75h4.97Z"/>
        <path class="cls-2" d="M1227.75,1719.82c-4.68,0-8.31-1.32-10.9-3.96-2.59-2.64-3.88-6.39-3.88-11.24s1.25-8.59,3.76-11.43c2.51-2.83,5.79-4.25,9.84-4.25,1.82,0,3.44.26,4.84.79,1.4.53,2.63,1.35,3.68,2.47,1.05,1.12,1.86,2.49,2.42,4.12.56,1.62.84,3.61.84,5.96v2.68h-20.35c0,3.42.86,6.03,2.58,7.84,1.72,1.81,4.09,2.71,7.13,2.71,1.09,0,2.15-.12,3.2-.37,1.04-.25,1.99-.56,2.83-.95.89-.4,1.65-.79,2.26-1.17.61-.38,1.12-.73,1.52-1.07h.29v5.39c-.58.23-1.3.51-2.16.85s-1.63.61-2.31.8c-.96.26-1.84.46-2.62.61-.78.14-1.77.21-2.96.21ZM1233.54,1701.17c-.04-1.33-.19-2.48-.47-3.44s-.68-1.78-1.21-2.45c-.58-.74-1.32-1.3-2.22-1.68-.9-.39-2.02-.58-3.35-.58s-2.43.2-3.35.59-1.76.97-2.51,1.72c-.74.77-1.3,1.63-1.68,2.56-.39.94-.63,2.03-.74,3.27h15.54Z"/>
        <path class="cls-2" d="M1292.85,1695.07h-.26c-.37-.11-.76-.17-1.17-.2-.41-.03-.91-.04-1.49-.04-1.33,0-2.66.29-3.97.87-1.31.58-2.56,1.44-3.73,2.58v20.85h-4.94v-29.38h4.94v4.37c1.81-1.59,3.38-2.72,4.72-3.38,1.34-.66,2.64-.99,3.91-.99.51,0,.89.01,1.14.04.25.03.54.07.85.12v5.15Z"/>
        <path class="cls-2" d="M1390.92,1719.13v-34.53h-13.15v-4.63h31.5v4.63h-13.15v34.53h-5.21Z"/>
        <path class="cls-2" d="M1465.43,1704.46c0,4.94-1.19,8.76-3.58,11.45-2.38,2.69-5.56,4.04-9.52,4.04s-7.3-1.39-9.64-4.17c-2.34-2.78-3.51-6.55-3.51-11.32s1.21-8.72,3.62-11.44c2.41-2.72,5.59-4.08,9.53-4.08s7.14,1.35,9.52,4.06c2.38,2.71,3.58,6.53,3.58,11.45ZM1460.33,1704.46c0-3.8-.69-6.63-2.08-8.48-1.39-1.85-3.36-2.77-5.92-2.77s-4.56.92-5.96,2.77c-1.39,1.85-2.09,4.68-2.09,8.48s.7,6.47,2.09,8.38c1.39,1.9,3.38,2.85,5.96,2.85s4.51-.93,5.9-2.8c1.39-1.87,2.09-4.68,2.09-8.43Z"/>
        <path class="cls-2" d="M1589.15,1719.13h-5.21v-33.74l-10.2,30.02h-3.16l-10.12-30.02v33.74h-4.86v-39.16h7.1l9.78,28.86,9.44-28.86h7.23v39.16Z"/>
        <path class="cls-2" d="M1654.8,1704.46c0,4.94-1.19,8.76-3.58,11.45-2.38,2.69-5.56,4.04-9.52,4.04s-7.3-1.39-9.64-4.17c-2.34-2.78-3.51-6.55-3.51-11.32s1.21-8.72,3.62-11.44c2.41-2.72,5.59-4.08,9.53-4.08s7.14,1.35,9.52,4.06c2.38,2.71,3.58,6.53,3.58,11.45ZM1649.7,1704.46c0-3.8-.69-6.63-2.08-8.48-1.39-1.85-3.36-2.77-5.92-2.77s-4.56.92-5.96,2.77c-1.39,1.85-2.09,4.68-2.09,8.48s.7,6.47,2.09,8.38c1.39,1.9,3.38,2.85,5.96,2.85s4.51-.93,5.9-2.8c1.39-1.87,2.09-4.68,2.09-8.43Z"/>
        <path class="cls-2" d="M1716.58,1689.76l-11.07,29.38h-4.44l-10.99-29.38h5.34l8.05,22.67,7.97-22.67h5.15Z"/>
        <path class="cls-2" d="M1766.58,1719.82c-4.68,0-8.31-1.32-10.9-3.96-2.59-2.64-3.88-6.39-3.88-11.24s1.25-8.59,3.76-11.43c2.51-2.83,5.79-4.25,9.84-4.25,1.82,0,3.44.26,4.84.79,1.4.53,2.63,1.35,3.68,2.47,1.05,1.12,1.86,2.49,2.42,4.12.56,1.62.84,3.61.84,5.96v2.68h-20.35c0,3.42.86,6.03,2.58,7.84,1.72,1.81,4.09,2.71,7.13,2.71,1.09,0,2.15-.12,3.2-.37,1.04-.25,1.99-.56,2.83-.95.89-.4,1.65-.79,2.26-1.17.61-.38,1.12-.73,1.52-1.07h.29v5.39c-.58.23-1.3.51-2.16.85s-1.63.61-2.31.8c-.96.26-1.84.46-2.62.61-.78.14-1.77.21-2.96.21ZM1772.36,1701.17c-.04-1.33-.19-2.48-.47-3.44s-.68-1.78-1.21-2.45c-.58-.74-1.32-1.3-2.22-1.68-.9-.39-2.02-.58-3.35-.58s-2.43.2-3.35.59-1.76.97-2.51,1.72c-.74.77-1.3,1.63-1.68,2.56-.39.94-.63,2.03-.74,3.27h15.54Z"/>
      </g>
    </g>
    <g>
      <path d="M146.33,115.16c17.14.02,29.68,13.53,30.13,29.38.43,15.47-11.48,30.67-28.06,30.73l-78.31.26-.48,92.45c-.09,18.1-17.55,30.76-34.38,30.83-16.72.07-34.52-13.03-34.55-31.51L.36,94.29c-.03-16.21,3.69-31.14,10.23-45.81,7.75-17.38,21.17-31.8,38.57-39.68C60.37,3.72,72.27.26,84.79.26l86.97-.06c15.98-.01,28.4,13.48,29.9,28.51,2.01,20.29-13.03,36.29-32.89,36.28l-59.02-.03c-3.71,0-7.73.85-11.45,1.46-24.55,4-35.98,24.89-31.78,48.65l79.81.09Z"/>
      <path d="M316.02,217.77l.3-81.46c.06-15.21,13.95-26.4,28.06-26.87,13.88-.45,28.84,10.36,28.99,25.79.28,29.2,1.45,57.67-.24,86.79-2.56,44.12-41.19,77.09-83.88,76.78-43.27-.32-81.44-34.22-83.13-78.65-1.1-28.96-.58-56.95.07-85.84.34-15.36,16.1-25.73,29.84-24.82,14.22.94,27.2,12.72,27.22,27.76l.11,79.91c.01,7.12,3.02,12.93,8.39,17.27,11.39,9.21,28,8.71,38.21-2,3.63-3.81,6.04-8.69,6.06-14.67Z"/>
      <path class="cls-3" d="M705.86,183.03c-9.45-17.31-31.7-20.11-46.58-8.76-7.24,5.52-9.17,13.65-9.22,22.63l-.43,78.97c-.08,14.23-15.51,24.09-28.09,22.76-9.41-1-15.61-5.14-19.94-12.96-1.69-3.06-3.83-7.08-3.83-11.12l.05-85.26c5.36-50.07,51.61-83.46,100.27-72.06,37.01,8.67,62.92,41.93,62.79,80.62l-.26,75.76c-.05,14.34-12.11,24.58-25.58,25.17-12.71.56-26.27-10.24-26.28-23.68l-.02-75.26c0-5.36-.15-11.82-2.88-16.82Z"/>
      <path d="M471.13,271.06c0,17-17.95,28.29-31.7,27.73-16.82-.69-29.94-13.83-29.93-31.12l.23-239.74C409.75,11.45,425.46-.02,440.2,0c14.91.02,31.07,11.31,31.06,28.01l-.13,243.05Z"/>
      <path d="M565.51,271.16c0,16.31-16.53,27.45-30.31,27.65-14.97.21-30.82-11.43-30.81-28.01l.16-244.71c.01-15.77,17.08-26.08,30.21-25.9,14.57.2,30.72,10.91,30.72,27.03l.02,243.95ZM530.7,15.35c-10.61,2.98-15.54,13.76-12.26,23.3,3.05,8.88,12.96,14.45,22.27,11.62,9.44-2.87,15.03-12.65,12.41-22.31-2.45-9.05-12.33-15.46-22.42-12.62ZM535.66,286.98c7.36-.08,18.97-5.24,18.98-14.2l.26-141.84c.01-7.26-5.88-11.99-11.74-14.5s-12.29-1.93-18.04.7c-6.44,2.94-10.42,8.47-10.42,15.91l.02,138.75c2.47,9.66,9.72,15.31,20.94,15.19Z"/>
      <path class="cls-3" d="M535.66,286.98c-11.22.12-18.47-5.52-20.94-15.19l-.02-138.75c0-7.44,3.98-12.97,10.42-15.91,5.75-2.63,12.11-3.24,18.04-.7s11.75,7.25,11.74,14.5l-.26,141.84c-.02,8.96-11.62,14.12-18.98,14.2Z"/>
      <path class="cls-3" d="M530.7,15.35c10.1-2.84,19.97,3.58,22.42,12.62,2.62,9.66-2.97,19.44-12.41,22.31-9.31,2.83-19.22-2.75-22.27-11.62-3.28-9.54,1.65-20.32,12.26-23.3Z"/>
      <g>
        <path d="M24.72,365.27c0,1.7-.3,3.31-.91,4.83-.6,1.52-1.44,2.81-2.51,3.88-1.35,1.33-2.94,2.34-4.76,3.02s-4.13,1.03-6.92,1.03h-4.42v14.6H0v-39.16h9.84c2.31,0,4.29.19,5.92.58,1.63.39,3.07,1.01,4.31,1.87,1.46,1,2.59,2.27,3.42,3.8.82,1.53,1.24,3.39,1.24,5.56ZM19.3,365.4c0-1.35-.23-2.52-.7-3.52s-1.17-1.81-2.12-2.45c-.82-.54-1.78-.93-2.88-1.16-1.1-.23-2.46-.34-4.09-.34h-4.31v15.65h3.55c2.1,0,3.8-.17,5.1-.51,1.3-.34,2.38-.95,3.23-1.83.77-.79,1.33-1.65,1.68-2.58.35-.93.53-2.02.53-3.26Z"/>
        <path d="M86.16,377.95c0,4.94-1.19,8.76-3.58,11.45-2.38,2.69-5.56,4.04-9.52,4.04s-7.3-1.39-9.64-4.17c-2.34-2.78-3.51-6.55-3.51-11.32s1.21-8.72,3.62-11.44c2.41-2.72,5.59-4.08,9.53-4.08s7.14,1.35,9.52,4.06c2.38,2.71,3.58,6.53,3.58,11.45ZM81.06,377.95c0-3.8-.69-6.63-2.08-8.48-1.39-1.85-3.36-2.77-5.92-2.77s-4.56.92-5.96,2.77c-1.39,1.85-2.09,4.68-2.09,8.48s.7,6.47,2.09,8.38c1.39,1.9,3.38,2.85,5.96,2.85s4.51-.93,5.9-2.8c1.39-1.87,2.09-4.68,2.09-8.43Z"/>
        <path d="M160.77,363.25l-7.44,29.38h-4.58l-7.18-22.64-7.13,22.64h-4.55l-7.52-29.38h5.15l5.18,22.75,6.97-22.75h4.08l7.15,22.75,4.89-22.75h4.97Z"/>
        <path d="M211.82,393.31c-4.68,0-8.31-1.32-10.9-3.96-2.59-2.64-3.88-6.39-3.88-11.24s1.25-8.59,3.76-11.43c2.51-2.83,5.79-4.25,9.84-4.25,1.82,0,3.44.26,4.84.79,1.4.53,2.63,1.35,3.68,2.47,1.05,1.12,1.86,2.49,2.42,4.12.56,1.62.84,3.61.84,5.96v2.68h-20.35c0,3.42.86,6.03,2.58,7.84,1.72,1.81,4.09,2.71,7.13,2.71,1.09,0,2.15-.12,3.2-.37,1.04-.25,1.99-.56,2.83-.95.89-.4,1.65-.79,2.26-1.17.61-.38,1.12-.73,1.52-1.07h.29v5.39c-.58.23-1.3.51-2.16.85s-1.63.61-2.31.8c-.96.26-1.84.46-2.62.61-.78.14-1.77.21-2.96.21ZM217.61,374.66c-.04-1.33-.19-2.48-.47-3.44s-.68-1.78-1.21-2.45c-.58-.74-1.32-1.3-2.22-1.68-.9-.39-2.02-.58-3.35-.58s-2.43.2-3.35.59-1.76.97-2.51,1.72c-.74.77-1.3,1.63-1.68,2.56-.39.94-.63,2.03-.74,3.27h15.54Z"/>
        <path d="M276.92,368.56h-.26c-.37-.11-.76-.17-1.17-.2-.41-.03-.91-.04-1.49-.04-1.33,0-2.66.29-3.97.87-1.31.58-2.56,1.44-3.73,2.58v20.85h-4.94v-29.38h4.94v4.37c1.81-1.59,3.38-2.72,4.72-3.38,1.34-.66,2.64-.99,3.91-.99.51,0,.89.01,1.14.04.25.03.54.07.85.12v5.15Z"/>
        <path d="M374.99,392.62v-34.53h-13.15v-4.63h31.5v4.63h-13.15v34.53h-5.21Z"/>
        <path d="M449.5,377.95c0,4.94-1.19,8.76-3.58,11.45-2.38,2.69-5.56,4.04-9.52,4.04s-7.3-1.39-9.64-4.17c-2.34-2.78-3.51-6.55-3.51-11.32s1.21-8.72,3.62-11.44c2.41-2.72,5.59-4.08,9.53-4.08s7.14,1.35,9.52,4.06c2.38,2.71,3.58,6.53,3.58,11.45ZM444.4,377.95c0-3.8-.69-6.63-2.08-8.48-1.39-1.85-3.36-2.77-5.92-2.77s-4.56.92-5.96,2.77c-1.39,1.85-2.09,4.68-2.09,8.48s.7,6.47,2.09,8.38c1.39,1.9,3.38,2.85,5.96,2.85s4.51-.93,5.9-2.8c1.39-1.87,2.09-4.68,2.09-8.43Z"/>
        <path d="M573.22,392.62h-5.21v-33.74l-10.2,30.02h-3.16l-10.12-30.02v33.74h-4.86v-39.16h7.1l9.78,28.86,9.44-28.86h7.23v39.16Z"/>
        <path d="M638.87,377.95c0,4.94-1.19,8.76-3.58,11.45-2.38,2.69-5.56,4.04-9.52,4.04s-7.3-1.39-9.64-4.17c-2.34-2.78-3.51-6.55-3.51-11.32s1.21-8.72,3.62-11.44c2.41-2.72,5.59-4.08,9.53-4.08s7.14,1.35,9.52,4.06c2.38,2.71,3.58,6.53,3.58,11.45ZM633.77,377.95c0-3.8-.69-6.63-2.08-8.48-1.39-1.85-3.36-2.77-5.92-2.77s-4.56.92-5.96,2.77c-1.39,1.85-2.09,4.68-2.09,8.48s.7,6.47,2.09,8.38c1.39,1.9,3.38,2.85,5.96,2.85s4.51-.93,5.9-2.8c1.39-1.87,2.09-4.68,2.09-8.43Z"/>
        <path d="M700.65,363.25l-11.07,29.38h-4.44l-10.99-29.38h5.34l8.05,22.67,7.97-22.67h5.15Z"/>
        <path d="M750.65,393.31c-4.68,0-8.31-1.32-10.9-3.96-2.59-2.64-3.88-6.39-3.88-11.24s1.25-8.59,3.76-11.43c2.51-2.83,5.79-4.25,9.84-4.25,1.82,0,3.44.26,4.84.79,1.4.53,2.63,1.35,3.68,2.47,1.05,1.12,1.86,2.49,2.42,4.12.56,1.62.84,3.61.84,5.96v2.68h-20.35c0,3.42.86,6.03,2.58,7.84,1.72,1.81,4.09,2.71,7.13,2.71,1.09,0,2.15-.12,3.2-.37,1.04-.25,1.99-.56,2.83-.95.89-.4,1.65-.79,2.26-1.17.61-.38,1.12-.73,1.52-1.07h.29v5.39c-.58.23-1.3.51-2.16.85s-1.63.61-2.31.8c-.96.26-1.84.46-2.62.61-.78.14-1.77.21-2.96.21ZM756.43,374.66c-.04-1.33-.19-2.48-.47-3.44s-.68-1.78-1.21-2.45c-.58-.74-1.32-1.3-2.22-1.68-.9-.39-2.02-.58-3.35-.58s-2.43.2-3.35.59-1.76.97-2.51,1.72c-.74.77-1.3,1.63-1.68,2.56-.39.94-.63,2.03-.74,3.27h15.54Z"/>
      </g>
    </g>
    <g>
      <path d="M1162.26,125.34c17.14.02,29.68,13.53,30.13,29.38.43,15.47-11.48,30.67-28.06,30.73l-78.31.26-.48,92.45c-.09,18.1-17.55,30.76-34.38,30.83-16.72.07-34.52-13.03-34.55-31.51l-.3-173.01c-.03-16.21,3.69-31.14,10.23-45.81,7.75-17.38,21.17-31.8,38.57-39.68,11.21-5.08,23.11-8.54,35.63-8.55l86.97-.06c15.98-.01,28.4,13.48,29.9,28.51,2.01,20.29-13.03,36.29-32.89,36.28l-59.02-.03c-3.71,0-7.73.85-11.45,1.46-24.55,4-35.98,24.89-31.78,48.65l79.81.09Z"/>
      <path d="M1331.96,227.95l.3-81.46c.06-15.21,13.95-26.4,28.06-26.87,13.88-.45,28.84,10.36,28.99,25.79.28,29.2,1.45,57.67-.24,86.79-2.56,44.12-41.19,77.09-83.88,76.78-43.27-.32-81.44-34.22-83.13-78.65-1.1-28.96-.58-56.95.07-85.84.34-15.36,16.1-25.73,29.84-24.82,14.22.94,27.2,12.72,27.22,27.76l.11,79.91c.01,7.12,3.02,12.93,8.39,17.27,11.39,9.21,28,8.71,38.21-2,3.63-3.81,6.04-8.69,6.06-14.67Z"/>
      <path class="cls-2" d="M1721.79,193.21c-9.45-17.31-31.7-20.11-46.58-8.76-7.24,5.52-9.17,13.65-9.22,22.63l-.43,78.97c-.08,14.23-15.51,24.09-28.09,22.76-9.41-1-15.61-5.14-19.94-12.96-1.69-3.06-3.83-7.08-3.83-11.12l.05-85.26c5.36-50.07,51.61-83.46,100.27-72.06,37.01,8.67,62.92,41.93,62.79,80.62l-.26,75.76c-.05,14.34-12.11,24.58-25.58,25.17-12.71.56-26.27-10.24-26.28-23.68l-.02-75.26c0-5.36-.15-11.82-2.88-16.82Z"/>
      <path d="M1487.06,281.25c0,17-17.95,28.29-31.7,27.73-16.82-.69-29.94-13.83-29.93-31.12l.23-239.74c.02-16.48,15.73-27.94,30.47-27.93s31.07,11.31,31.06,28.01l-.13,243.05Z"/>
      <path d="M1581.44,281.34c0,16.31-16.53,27.45-30.31,27.65-14.97.21-30.82-11.43-30.81-28.01l.16-244.71c.01-15.77,17.08-26.08,30.21-25.9,14.57.2,30.72,10.91,30.72,27.03l.02,243.95ZM1546.63,25.54c-10.61,2.98-15.54,13.76-12.26,23.3,3.05,8.88,12.96,14.45,22.27,11.62,9.44-2.87,15.03-12.65,12.41-22.31-2.45-9.05-12.33-15.46-22.42-12.62ZM1551.59,297.16c7.36-.08,18.97-5.24,18.98-14.2l.26-141.84c.01-7.26-5.88-11.99-11.74-14.5-5.93-2.54-12.29-1.93-18.04.7-6.44,2.94-10.42,8.47-10.42,15.91l.02,138.75c2.47,9.66,9.72,15.31,20.94,15.19Z"/>
      <path class="cls-2" d="M1551.59,297.16c-11.22.12-18.47-5.52-20.94-15.19l-.02-138.75c0-7.44,3.98-12.97,10.42-15.91,5.75-2.63,12.11-3.24,18.04-.7,5.86,2.51,11.75,7.25,11.74,14.5l-.26,141.84c-.02,8.96-11.62,14.12-18.98,14.2Z"/>
      <path class="cls-2" d="M1546.63,25.54c10.1-2.84,19.97,3.58,22.42,12.62,2.62,9.66-2.97,19.44-12.41,22.31-9.31,2.83-19.22-2.75-22.27-11.62-3.28-9.54,1.65-20.32,12.26-23.3Z"/>
      <g>
        <path d="M1040.65,375.46c0,1.7-.3,3.31-.91,4.83-.6,1.52-1.44,2.81-2.51,3.88-1.35,1.33-2.94,2.34-4.76,3.02s-4.13,1.03-6.92,1.03h-4.42v14.6h-5.21v-39.16h9.84c2.31,0,4.29.19,5.92.58,1.63.39,3.07,1.01,4.31,1.87,1.46,1,2.59,2.27,3.42,3.8.82,1.53,1.24,3.39,1.24,5.56ZM1035.23,375.59c0-1.35-.23-2.52-.7-3.52s-1.17-1.81-2.12-2.45c-.82-.54-1.78-.93-2.88-1.16-1.1-.23-2.46-.34-4.09-.34h-4.31v15.65h3.55c2.1,0,3.8-.17,5.1-.51,1.3-.34,2.38-.95,3.23-1.83.77-.79,1.33-1.65,1.68-2.58.35-.93.53-2.02.53-3.26Z"/>
        <path d="M1102.09,388.13c0,4.94-1.19,8.76-3.58,11.45-2.38,2.69-5.56,4.04-9.52,4.04s-7.3-1.39-9.64-4.17c-2.34-2.78-3.51-6.55-3.51-11.32s1.21-8.72,3.62-11.44c2.41-2.72,5.59-4.08,9.53-4.08s7.14,1.35,9.52,4.06c2.38,2.71,3.58,6.53,3.58,11.45ZM1096.99,388.13c0-3.8-.69-6.63-2.08-8.48-1.39-1.85-3.36-2.77-5.92-2.77s-4.56.92-5.96,2.77c-1.39,1.85-2.09,4.68-2.09,8.48s.7,6.47,2.09,8.38c1.39,1.9,3.38,2.85,5.96,2.85s4.51-.93,5.9-2.8c1.39-1.87,2.09-4.68,2.09-8.43Z"/>
        <path d="M1176.7,373.43l-7.44,29.38h-4.58l-7.18-22.64-7.13,22.64h-4.55l-7.52-29.38h5.15l5.18,22.75,6.97-22.75h4.08l7.15,22.75,4.89-22.75h4.97Z"/>
        <path d="M1227.75,403.49c-4.68,0-8.31-1.32-10.9-3.96-2.59-2.64-3.88-6.39-3.88-11.24s1.25-8.59,3.76-11.43c2.51-2.83,5.79-4.25,9.84-4.25,1.82,0,3.44.26,4.84.79,1.4.53,2.63,1.35,3.68,2.47,1.05,1.12,1.86,2.49,2.42,4.12.56,1.62.84,3.61.84,5.96v2.68h-20.35c0,3.42.86,6.03,2.58,7.84,1.72,1.81,4.09,2.71,7.13,2.71,1.09,0,2.15-.12,3.2-.37,1.04-.25,1.99-.56,2.83-.95.89-.4,1.65-.79,2.26-1.17.61-.38,1.12-.73,1.52-1.07h.29v5.39c-.58.23-1.3.51-2.16.85s-1.63.61-2.31.8c-.96.26-1.84.46-2.62.61-.78.14-1.77.21-2.96.21ZM1233.54,384.84c-.04-1.33-.19-2.48-.47-3.44s-.68-1.78-1.21-2.45c-.58-.74-1.32-1.3-2.22-1.68-.9-.39-2.02-.58-3.35-.58s-2.43.2-3.35.59-1.76.97-2.51,1.72c-.74.77-1.3,1.63-1.68,2.56-.39.94-.63,2.03-.74,3.27h15.54Z"/>
        <path d="M1292.85,378.74h-.26c-.37-.11-.76-.17-1.17-.2-.41-.03-.91-.04-1.49-.04-1.33,0-2.66.29-3.97.87-1.31.58-2.56,1.44-3.73,2.58v20.85h-4.94v-29.38h4.94v4.37c1.81-1.59,3.38-2.72,4.72-3.38,1.34-.66,2.64-.99,3.91-.99.51,0,.89.01,1.14.04.25.03.54.07.85.12v5.15Z"/>
        <path d="M1390.92,402.81v-34.53h-13.15v-4.63h31.5v4.63h-13.15v34.53h-5.21Z"/>
        <path d="M1465.43,388.13c0,4.94-1.19,8.76-3.58,11.45-2.38,2.69-5.56,4.04-9.52,4.04s-7.3-1.39-9.64-4.17c-2.34-2.78-3.51-6.55-3.51-11.32s1.21-8.72,3.62-11.44c2.41-2.72,5.59-4.08,9.53-4.08s7.14,1.35,9.52,4.06c2.38,2.71,3.58,6.53,3.58,11.45ZM1460.33,388.13c0-3.8-.69-6.63-2.08-8.48-1.39-1.85-3.36-2.77-5.92-2.77s-4.56.92-5.96,2.77c-1.39,1.85-2.09,4.68-2.09,8.48s.7,6.47,2.09,8.38c1.39,1.9,3.38,2.85,5.96,2.85s4.51-.93,5.9-2.8c1.39-1.87,2.09-4.68,2.09-8.43Z"/>
        <path d="M1589.15,402.81h-5.21v-33.74l-10.2,30.02h-3.16l-10.12-30.02v33.74h-4.86v-39.16h7.1l9.78,28.86,9.44-28.86h7.23v39.16Z"/>
        <path d="M1654.8,388.13c0,4.94-1.19,8.76-3.58,11.45-2.38,2.69-5.56,4.04-9.52,4.04s-7.3-1.39-9.64-4.17c-2.34-2.78-3.51-6.55-3.51-11.32s1.21-8.72,3.62-11.44c2.41-2.72,5.59-4.08,9.53-4.08s7.14,1.35,9.52,4.06c2.38,2.71,3.58,6.53,3.58,11.45ZM1649.7,388.13c0-3.8-.69-6.63-2.08-8.48-1.39-1.85-3.36-2.77-5.92-2.77s-4.56.92-5.96,2.77c-1.39,1.85-2.09,4.68-2.09,8.48s.7,6.47,2.09,8.38c1.39,1.9,3.38,2.85,5.96,2.85s4.51-.93,5.9-2.8c1.39-1.87,2.09-4.68,2.09-8.43Z"/>
        <path d="M1716.58,373.43l-11.07,29.38h-4.44l-10.99-29.38h5.34l8.05,22.67,7.97-22.67h5.15Z"/>
        <path d="M1766.58,403.49c-4.68,0-8.31-1.32-10.9-3.96-2.59-2.64-3.88-6.39-3.88-11.24s1.25-8.59,3.76-11.43c2.51-2.83,5.79-4.25,9.84-4.25,1.82,0,3.44.26,4.84.79,1.4.53,2.63,1.35,3.68,2.47,1.05,1.12,1.86,2.49,2.42,4.12.56,1.62.84,3.61.84,5.96v2.68h-20.35c0,3.42.86,6.03,2.58,7.84,1.72,1.81,4.09,2.71,7.13,2.71,1.09,0,2.15-.12,3.2-.37,1.04-.25,1.99-.56,2.83-.95.89-.4,1.65-.79,2.26-1.17.61-.38,1.12-.73,1.52-1.07h.29v5.39c-.58.23-1.3.51-2.16.85s-1.63.61-2.31.8c-.96.26-1.84.46-2.62.61-.78.14-1.77.21-2.96.21ZM1772.36,384.84c-.04-1.33-.19-2.48-.47-3.44s-.68-1.78-1.21-2.45c-.58-.74-1.32-1.3-2.22-1.68-.9-.39-2.02-.58-3.35-.58s-2.43.2-3.35.59-1.76.97-2.51,1.72c-.74.77-1.3,1.63-1.68,2.56-.39.94-.63,2.03-.74,3.27h15.54Z"/>
      </g>
    </g>
    <g>
      <path class="cls-1" d="M146.33,786.99c17.14.02,29.68,13.53,30.13,29.38.43,15.47-11.48,30.67-28.06,30.73l-78.31.26-.48,92.45c-.09,18.1-17.55,30.76-34.38,30.83-16.72.07-34.52-13.03-34.55-31.51l-.3-173.01c-.03-16.21,3.69-31.14,10.23-45.81,7.75-17.38,21.17-31.8,38.57-39.68,11.21-5.08,23.11-8.54,35.63-8.55l86.97-.06c15.98-.01,28.4,13.48,29.9,28.51,2.01,20.29-13.03,36.29-32.89,36.28l-59.02-.03c-3.71,0-7.73.85-11.45,1.46-24.55,4-35.98,24.89-31.78,48.65l79.81.09Z"/>
      <path class="cls-1" d="M316.02,889.6l.3-81.46c.06-15.21,13.95-26.4,28.06-26.87,13.88-.45,28.84,10.36,28.99,25.79.28,29.2,1.45,57.67-.24,86.79-2.56,44.12-41.19,77.09-83.88,76.78-43.27-.32-81.44-34.22-83.13-78.65-1.1-28.96-.58-56.95.07-85.84.34-15.36,16.1-25.73,29.84-24.82,14.22.94,27.2,12.72,27.22,27.76l.11,79.91c.01,7.12,3.02,12.93,8.39,17.27,11.39,9.21,28,8.71,38.21-2,3.63-3.81,6.04-8.69,6.06-14.67Z"/>
      <path class="cls-3" d="M705.86,854.86c-9.45-17.31-31.7-20.11-46.58-8.76-7.24,5.52-9.17,13.65-9.22,22.63l-.43,78.97c-.08,14.23-15.51,24.09-28.09,22.76-9.41-1-15.61-5.14-19.94-12.96-1.69-3.06-3.83-7.08-3.83-11.12l.05-85.26c5.36-50.07,51.61-83.46,100.27-72.06,37.01,8.67,62.92,41.93,62.79,80.62l-.26,75.76c-.05,14.34-12.11,24.58-25.58,25.17-12.71.56-26.27-10.24-26.28-23.68l-.02-75.26c0-5.36-.15-11.82-2.88-16.82Z"/>
      <path class="cls-1" d="M471.13,942.9c0,17-17.95,28.29-31.7,27.73-16.82-.69-29.94-13.83-29.93-31.12l.23-239.74c.02-16.48,15.73-27.94,30.47-27.93,14.91.02,31.07,11.31,31.06,28.01l-.13,243.05Z"/>
      <path class="cls-1" d="M565.51,942.99c0,16.31-16.53,27.45-30.31,27.65-14.97.21-30.82-11.43-30.81-28.01l.16-244.71c.01-15.77,17.08-26.08,30.21-25.9,14.57.2,30.72,10.91,30.72,27.03l.02,243.95ZM530.7,687.18c-10.61,2.98-15.54,13.76-12.26,23.3,3.05,8.88,12.96,14.45,22.27,11.62,9.44-2.87,15.03-12.65,12.41-22.31-2.45-9.05-12.33-15.46-22.42-12.62ZM535.66,958.81c7.36-.08,18.97-5.24,18.98-14.2l.26-141.84c.01-7.26-5.88-11.99-11.74-14.5-5.93-2.54-12.29-1.93-18.04.7-6.44,2.94-10.42,8.47-10.42,15.91l.02,138.75c2.47,9.66,9.72,15.31,20.94,15.19Z"/>
      <path class="cls-3" d="M535.66,958.81c-11.22.12-18.47-5.52-20.94-15.19l-.02-138.75c0-7.44,3.98-12.97,10.42-15.91,5.75-2.63,12.11-3.24,18.04-.7,5.86,2.51,11.75,7.25,11.74,14.5l-.26,141.84c-.02,8.96-11.62,14.12-18.98,14.2Z"/>
      <path class="cls-3" d="M530.7,687.18c10.1-2.84,19.97,3.58,22.42,12.62,2.62,9.66-2.97,19.44-12.41,22.31-9.31,2.83-19.22-2.75-22.27-11.62-3.28-9.54,1.65-20.32,12.26-23.3Z"/>
      <g>
        <path class="cls-1" d="M24.72,1037.11c0,1.7-.3,3.31-.91,4.83-.6,1.52-1.44,2.81-2.51,3.88-1.35,1.33-2.94,2.34-4.76,3.02s-4.13,1.03-6.92,1.03h-4.42v14.6H0v-39.16h9.84c2.31,0,4.29.19,5.92.58,1.63.39,3.07,1.01,4.31,1.87,1.46,1,2.59,2.27,3.42,3.8.82,1.53,1.24,3.39,1.24,5.56ZM19.3,1037.24c0-1.35-.23-2.52-.7-3.52s-1.17-1.81-2.12-2.45c-.82-.54-1.78-.93-2.88-1.16-1.1-.23-2.46-.34-4.09-.34h-4.31v15.65h3.55c2.1,0,3.8-.17,5.1-.51,1.3-.34,2.38-.95,3.23-1.83.77-.79,1.33-1.65,1.68-2.58.35-.93.53-2.02.53-3.26Z"/>
        <path class="cls-1" d="M86.16,1049.78c0,4.94-1.19,8.76-3.58,11.45-2.38,2.69-5.56,4.04-9.52,4.04s-7.3-1.39-9.64-4.17c-2.34-2.78-3.51-6.55-3.51-11.32s1.21-8.72,3.62-11.44c2.41-2.72,5.59-4.08,9.53-4.08s7.14,1.35,9.52,4.06c2.38,2.71,3.58,6.53,3.58,11.45ZM81.06,1049.78c0-3.8-.69-6.63-2.08-8.48-1.39-1.85-3.36-2.77-5.92-2.77s-4.56.92-5.96,2.77c-1.39,1.85-2.09,4.68-2.09,8.48s.7,6.47,2.09,8.38c1.39,1.9,3.38,2.85,5.96,2.85s4.51-.93,5.9-2.8c1.39-1.87,2.09-4.68,2.09-8.43Z"/>
        <path class="cls-1" d="M160.77,1035.08l-7.44,29.38h-4.58l-7.18-22.64-7.13,22.64h-4.55l-7.52-29.38h5.15l5.18,22.75,6.97-22.75h4.08l7.15,22.75,4.89-22.75h4.97Z"/>
        <path class="cls-1" d="M211.82,1065.14c-4.68,0-8.31-1.32-10.9-3.96-2.59-2.64-3.88-6.39-3.88-11.24s1.25-8.59,3.76-11.43c2.51-2.83,5.79-4.25,9.84-4.25,1.82,0,3.44.26,4.84.79,1.4.53,2.63,1.35,3.68,2.47,1.05,1.12,1.86,2.49,2.42,4.12.56,1.62.84,3.61.84,5.96v2.68h-20.35c0,3.42.86,6.03,2.58,7.84,1.72,1.81,4.09,2.71,7.13,2.71,1.09,0,2.15-.12,3.2-.37,1.04-.25,1.99-.56,2.83-.95.89-.4,1.65-.79,2.26-1.17.61-.38,1.12-.73,1.52-1.07h.29v5.39c-.58.23-1.3.51-2.16.85s-1.63.61-2.31.8c-.96.26-1.84.46-2.62.61-.78.14-1.77.21-2.96.21ZM217.61,1046.49c-.04-1.33-.19-2.48-.47-3.44s-.68-1.78-1.21-2.45c-.58-.74-1.32-1.3-2.22-1.68-.9-.39-2.02-.58-3.35-.58s-2.43.2-3.35.59-1.76.97-2.51,1.72c-.74.77-1.3,1.63-1.68,2.56-.39.94-.63,2.03-.74,3.27h15.54Z"/>
        <path class="cls-1" d="M276.92,1040.39h-.26c-.37-.11-.76-.17-1.17-.2-.41-.03-.91-.04-1.49-.04-1.33,0-2.66.29-3.97.87-1.31.58-2.56,1.44-3.73,2.58v20.85h-4.94v-29.38h4.94v4.37c1.81-1.59,3.38-2.72,4.72-3.38,1.34-.66,2.64-.99,3.91-.99.51,0,.89.01,1.14.04.25.03.54.07.85.12v5.15Z"/>
        <path class="cls-1" d="M374.99,1064.45v-34.53h-13.15v-4.63h31.5v4.63h-13.15v34.53h-5.21Z"/>
        <path class="cls-1" d="M449.5,1049.78c0,4.94-1.19,8.76-3.58,11.45-2.38,2.69-5.56,4.04-9.52,4.04s-7.3-1.39-9.64-4.17c-2.34-2.78-3.51-6.55-3.51-11.32s1.21-8.72,3.62-11.44c2.41-2.72,5.59-4.08,9.53-4.08s7.14,1.35,9.52,4.06c2.38,2.71,3.58,6.53,3.58,11.45ZM444.4,1049.78c0-3.8-.69-6.63-2.08-8.48-1.39-1.85-3.36-2.77-5.92-2.77s-4.56.92-5.96,2.77c-1.39,1.85-2.09,4.68-2.09,8.48s.7,6.47,2.09,8.38c1.39,1.9,3.38,2.85,5.96,2.85s4.51-.93,5.9-2.8c1.39-1.87,2.09-4.68,2.09-8.43Z"/>
        <path class="cls-1" d="M573.22,1064.45h-5.21v-33.74l-10.2,30.02h-3.16l-10.12-30.02v33.74h-4.86v-39.16h7.1l9.78,28.86,9.44-28.86h7.23v39.16Z"/>
        <path class="cls-1" d="M638.87,1049.78c0,4.94-1.19,8.76-3.58,11.45-2.38,2.69-5.56,4.04-9.52,4.04s-7.3-1.39-9.64-4.17c-2.34-2.78-3.51-6.55-3.51-11.32s1.21-8.72,3.62-11.44c2.41-2.72,5.59-4.08,9.53-4.08s7.14,1.35,9.52,4.06c2.38,2.71,3.58,6.53,3.58,11.45ZM633.77,1049.78c0-3.8-.69-6.63-2.08-8.48-1.39-1.85-3.36-2.77-5.92-2.77s-4.56.92-5.96,2.77c-1.39,1.85-2.09,4.68-2.09,8.48s.7,6.47,2.09,8.38c1.39,1.9,3.38,2.85,5.96,2.85s4.51-.93,5.9-2.8c1.39-1.87,2.09-4.68,2.09-8.43Z"/>
        <path class="cls-1" d="M700.65,1035.08l-11.07,29.38h-4.44l-10.99-29.38h5.34l8.05,22.67,7.97-22.67h5.15Z"/>
        <path class="cls-1" d="M750.65,1065.14c-4.68,0-8.31-1.32-10.9-3.96-2.59-2.64-3.88-6.39-3.88-11.24s1.25-8.59,3.76-11.43c2.51-2.83,5.79-4.25,9.84-4.25,1.82,0,3.44.26,4.84.79,1.4.53,2.63,1.35,3.68,2.47,1.05,1.12,1.86,2.49,2.42,4.12.56,1.62.84,3.61.84,5.96v2.68h-20.35c0,3.42.86,6.03,2.58,7.84,1.72,1.81,4.09,2.71,7.13,2.71,1.09,0,2.15-.12,3.2-.37,1.04-.25,1.99-.56,2.83-.95.89-.4,1.65-.79,2.26-1.17.61-.38,1.12-.73,1.52-1.07h.29v5.39c-.58.23-1.3.51-2.16.85s-1.63.61-2.31.8c-.96.26-1.84.46-2.62.61-.78.14-1.77.21-2.96.21ZM756.43,1046.49c-.04-1.33-.19-2.48-.47-3.44s-.68-1.78-1.21-2.45c-.58-.74-1.32-1.3-2.22-1.68-.9-.39-2.02-.58-3.35-.58s-2.43.2-3.35.59-1.76.97-2.51,1.72c-.74.77-1.3,1.63-1.68,2.56-.39.94-.63,2.03-.74,3.27h15.54Z"/>
      </g>
    </g>
    <g>
      <path class="cls-3" d="M1162.26,817.26c17.14.02,29.68,13.53,30.13,29.38.43,15.47-11.48,30.67-28.06,30.73l-78.31.26-.48,92.45c-.09,18.1-17.55,30.76-34.38,30.83-16.72.07-34.52-13.03-34.55-31.51l-.3-173.01c-.03-16.21,3.69-31.14,10.23-45.81,7.75-17.38,21.17-31.8,38.57-39.68,11.21-5.08,23.11-8.54,35.63-8.55l86.97-.06c15.98-.01,28.4,13.48,29.9,28.51,2.01,20.29-13.03,36.29-32.89,36.28l-59.02-.03c-3.71,0-7.73.85-11.45,1.46-24.55,4-35.98,24.89-31.78,48.65l79.81.09Z"/>
      <path class="cls-3" d="M1331.96,919.87l.3-81.46c.06-15.21,13.95-26.4,28.06-26.87,13.88-.45,28.84,10.36,28.99,25.79.28,29.2,1.45,57.67-.24,86.79-2.56,44.12-41.19,77.09-83.88,76.78-43.27-.32-81.44-34.22-83.13-78.65-1.1-28.96-.58-56.95.07-85.84.34-15.36,16.1-25.73,29.84-24.82,14.22.94,27.2,12.72,27.22,27.76l.11,79.91c.01,7.12,3.02,12.93,8.39,17.27,11.39,9.21,28,8.71,38.21-2,3.63-3.81,6.04-8.69,6.06-14.67Z"/>
      <path class="cls-2" d="M1721.79,885.13c-9.45-17.31-31.7-20.11-46.58-8.76-7.24,5.52-9.17,13.65-9.22,22.63l-.43,78.97c-.08,14.23-15.51,24.09-28.09,22.76-9.41-1-15.61-5.14-19.94-12.96-1.69-3.06-3.83-7.08-3.83-11.12l.05-85.26c5.36-50.07,51.61-83.46,100.27-72.06,37.01,8.67,62.92,41.93,62.79,80.62l-.26,75.76c-.05,14.34-12.11,24.58-25.58,25.17-12.71.56-26.27-10.24-26.28-23.68l-.02-75.26c0-5.36-.15-11.82-2.88-16.82Z"/>
      <path class="cls-3" d="M1487.06,973.16c0,17-17.95,28.29-31.7,27.73-16.82-.69-29.94-13.83-29.93-31.12l.23-239.74c.02-16.48,15.73-27.94,30.47-27.93,14.91.02,31.07,11.31,31.06,28.01l-.13,243.05Z"/>
      <path class="cls-3" d="M1581.44,973.26c0,16.31-16.53,27.45-30.31,27.65-14.97.21-30.82-11.43-30.81-28.01l.16-244.71c.01-15.77,17.08-26.08,30.21-25.9,14.57.2,30.72,10.91,30.72,27.03l.02,243.95ZM1546.63,717.45c-10.61,2.98-15.54,13.76-12.26,23.3,3.05,8.88,12.96,14.45,22.27,11.62,9.44-2.87,15.03-12.65,12.41-22.31-2.45-9.05-12.33-15.46-22.42-12.62ZM1551.59,989.08c7.36-.08,18.97-5.24,18.98-14.2l.26-141.84c.01-7.26-5.88-11.99-11.74-14.5-5.93-2.54-12.29-1.93-18.04.7-6.44,2.94-10.42,8.47-10.42,15.91l.02,138.75c2.47,9.66,9.72,15.31,20.94,15.19Z"/>
      <path class="cls-2" d="M1551.59,989.08c-11.22.12-18.47-5.52-20.94-15.19l-.02-138.75c0-7.44,3.98-12.97,10.42-15.91,5.75-2.63,12.11-3.24,18.04-.7,5.86,2.51,11.75,7.25,11.74,14.5l-.26,141.84c-.02,8.96-11.62,14.12-18.98,14.2Z"/>
      <path class="cls-2" d="M1546.63,717.45c10.1-2.84,19.97,3.58,22.42,12.62,2.62,9.66-2.97,19.44-12.41,22.31-9.31,2.83-19.22-2.75-22.27-11.62-3.28-9.54,1.65-20.32,12.26-23.3Z"/>
      <g>
        <path class="cls-3" d="M1040.65,1067.37c0,1.7-.3,3.31-.91,4.83-.6,1.52-1.44,2.81-2.51,3.88-1.35,1.33-2.94,2.34-4.76,3.02s-4.13,1.03-6.92,1.03h-4.42v14.6h-5.21v-39.16h9.84c2.31,0,4.29.19,5.92.58,1.63.39,3.07,1.01,4.31,1.87,1.46,1,2.59,2.27,3.42,3.8.82,1.53,1.24,3.39,1.24,5.56ZM1035.23,1067.5c0-1.35-.23-2.52-.7-3.52s-1.17-1.81-2.12-2.45c-.82-.54-1.78-.93-2.88-1.16-1.1-.23-2.46-.34-4.09-.34h-4.31v15.65h3.55c2.1,0,3.8-.17,5.1-.51,1.3-.34,2.38-.95,3.23-1.83.77-.79,1.33-1.65,1.68-2.58.35-.93.53-2.02.53-3.26Z"/>
        <path class="cls-3" d="M1102.09,1080.05c0,4.94-1.19,8.76-3.58,11.45-2.38,2.69-5.56,4.04-9.52,4.04s-7.3-1.39-9.64-4.17c-2.34-2.78-3.51-6.55-3.51-11.32s1.21-8.72,3.62-11.44c2.41-2.72,5.59-4.08,9.53-4.08s7.14,1.35,9.52,4.06c2.38,2.71,3.58,6.53,3.58,11.45ZM1096.99,1080.05c0-3.8-.69-6.63-2.08-8.48-1.39-1.85-3.36-2.77-5.92-2.77s-4.56.92-5.96,2.77c-1.39,1.85-2.09,4.68-2.09,8.48s.7,6.47,2.09,8.38c1.39,1.9,3.38,2.85,5.96,2.85s4.51-.93,5.9-2.8c1.39-1.87,2.09-4.68,2.09-8.43Z"/>
        <path class="cls-3" d="M1176.7,1065.35l-7.44,29.38h-4.58l-7.18-22.64-7.13,22.64h-4.55l-7.52-29.38h5.15l5.18,22.75,6.97-22.75h4.08l7.15,22.75,4.89-22.75h4.97Z"/>
        <path class="cls-3" d="M1227.75,1095.41c-4.68,0-8.31-1.32-10.9-3.96-2.59-2.64-3.88-6.39-3.88-11.24s1.25-8.59,3.76-11.43c2.51-2.83,5.79-4.25,9.84-4.25,1.82,0,3.44.26,4.84.79,1.4.53,2.63,1.35,3.68,2.47,1.05,1.12,1.86,2.49,2.42,4.12.56,1.62.84,3.61.84,5.96v2.68h-20.35c0,3.42.86,6.03,2.58,7.84,1.72,1.81,4.09,2.71,7.13,2.71,1.09,0,2.15-.12,3.2-.37,1.04-.25,1.99-.56,2.83-.95.89-.4,1.65-.79,2.26-1.17.61-.38,1.12-.73,1.52-1.07h.29v5.39c-.58.23-1.3.51-2.16.85s-1.63.61-2.31.8c-.96.26-1.84.46-2.62.61-.78.14-1.77.21-2.96.21ZM1233.54,1076.76c-.04-1.33-.19-2.48-.47-3.44s-.68-1.78-1.21-2.45c-.58-.74-1.32-1.3-2.22-1.68-.9-.39-2.02-.58-3.35-.58s-2.43.2-3.35.59-1.76.97-2.51,1.72c-.74.77-1.3,1.63-1.68,2.56-.39.94-.63,2.03-.74,3.27h15.54Z"/>
        <path class="cls-3" d="M1292.85,1070.66h-.26c-.37-.11-.76-.17-1.17-.2-.41-.03-.91-.04-1.49-.04-1.33,0-2.66.29-3.97.87-1.31.58-2.56,1.44-3.73,2.58v20.85h-4.94v-29.38h4.94v4.37c1.81-1.59,3.38-2.72,4.72-3.38,1.34-.66,2.64-.99,3.91-.99.51,0,.89.01,1.14.04.25.03.54.07.85.12v5.15Z"/>
        <path class="cls-3" d="M1390.92,1094.72v-34.53h-13.15v-4.63h31.5v4.63h-13.15v34.53h-5.21Z"/>
        <path class="cls-3" d="M1465.43,1080.05c0,4.94-1.19,8.76-3.58,11.45-2.38,2.69-5.56,4.04-9.52,4.04s-7.3-1.39-9.64-4.17c-2.34-2.78-3.51-6.55-3.51-11.32s1.21-8.72,3.62-11.44c2.41-2.72,5.59-4.08,9.53-4.08s7.14,1.35,9.52,4.06c2.38,2.71,3.58,6.53,3.58,11.45ZM1460.33,1080.05c0-3.8-.69-6.63-2.08-8.48-1.39-1.85-3.36-2.77-5.92-2.77s-4.56.92-5.96,2.77c-1.39,1.85-2.09,4.68-2.09,8.48s.7,6.47,2.09,8.38c1.39,1.9,3.38,2.85,5.96,2.85s4.51-.93,5.9-2.8c1.39-1.87,2.09-4.68,2.09-8.43Z"/>
        <path class="cls-3" d="M1589.15,1094.72h-5.21v-33.74l-10.2,30.02h-3.16l-10.12-30.02v33.74h-4.86v-39.16h7.1l9.78,28.86,9.44-28.86h7.23v39.16Z"/>
        <path class="cls-3" d="M1654.8,1080.05c0,4.94-1.19,8.76-3.58,11.45-2.38,2.69-5.56,4.04-9.52,4.04s-7.3-1.39-9.64-4.17c-2.34-2.78-3.51-6.55-3.51-11.32s1.21-8.72,3.62-11.44c2.41-2.72,5.59-4.08,9.53-4.08s7.14,1.35,9.52,4.06c2.38,2.71,3.58,6.53,3.58,11.45ZM1649.7,1080.05c0-3.8-.69-6.63-2.08-8.48-1.39-1.85-3.36-2.77-5.92-2.77s-4.56.92-5.96,2.77c-1.39,1.85-2.09,4.68-2.09,8.48s.7,6.47,2.09,8.38c1.39,1.9,3.38,2.85,5.96,2.85s4.51-.93,5.9-2.8c1.39-1.87,2.09-4.68,2.09-8.43Z"/>
        <path class="cls-3" d="M1716.58,1065.35l-11.07,29.38h-4.44l-10.99-29.38h5.34l8.05,22.67,7.97-22.67h5.15Z"/>
        <path class="cls-3" d="M1766.58,1095.41c-4.68,0-8.31-1.32-10.9-3.96-2.59-2.64-3.88-6.39-3.88-11.24s1.25-8.59,3.76-11.43c2.51-2.83,5.79-4.25,9.84-4.25,1.82,0,3.44.26,4.84.79,1.4.53,2.63,1.35,3.68,2.47,1.05,1.12,1.86,2.49,2.42,4.12.56,1.62.84,3.61.84,5.96v2.68h-20.35c0,3.42.86,6.03,2.58,7.84,1.72,1.81,4.09,2.71,7.13,2.71,1.09,0,2.15-.12,3.2-.37,1.04-.25,1.99-.56,2.83-.95.89-.4,1.65-.79,2.26-1.17.61-.38,1.12-.73,1.52-1.07h.29v5.39c-.58.23-1.3.51-2.16.85s-1.63.61-2.31.8c-.96.26-1.84.46-2.62.61-.78.14-1.77.21-2.96.21ZM1772.36,1076.76c-.04-1.33-.19-2.48-.47-3.44s-.68-1.78-1.21-2.45c-.58-.74-1.32-1.3-2.22-1.68-.9-.39-2.02-.58-3.35-.58s-2.43.2-3.35.59-1.76.97-2.51,1.72c-.74.77-1.3,1.63-1.68,2.56-.39.94-.63,2.03-.74,3.27h15.54Z"/>
      </g>
    </g>
  </g>
</svg>